<?xml version="1.0" encoding="UTF-8" standalone="no"?>
<!-- Created with Inkscape (http://www.inkscape.org/) -->

<svg
   xmlns:dc="http://purl.org/dc/elements/1.1/"
   xmlns:cc="http://creativecommons.org/ns#"
   xmlns:rdf="http://www.w3.org/1999/02/22-rdf-syntax-ns#"
   xmlns:svg="http://www.w3.org/2000/svg"
   xmlns="http://www.w3.org/2000/svg"
   xmlns:xlink="http://www.w3.org/1999/xlink"
   xmlns:sodipodi="http://sodipodi.sourceforge.net/DTD/sodipodi-0.dtd"
   xmlns:inkscape="http://www.inkscape.org/namespaces/inkscape"
   width="4096"
   height="4096"
   id="svg2"
   version="1.1"
   inkscape:version="0.48.2 r9819"
   sodipodi:docname="bush.svg">
  <defs
     id="defs4" />
  <sodipodi:namedview
     id="base"
     pagecolor="#ffffff"
     bordercolor="#666666"
     borderopacity="1.0"
     inkscape:pageopacity="0.0"
     inkscape:pageshadow="2"
     inkscape:zoom="0.10821533"
     inkscape:cx="2048"
     inkscape:cy="2058.3111"
     inkscape:document-units="px"
     inkscape:current-layer="layer1"
     showgrid="false"
     inkscape:window-width="1017"
     inkscape:window-height="795"
     inkscape:window-x="554"
     inkscape:window-y="66"
     inkscape:window-maximized="0"
     borderlayer="true" />
  <metadata
     id="metadata7">
    <rdf:RDF>
      <cc:Work
         rdf:about="">
        <dc:format>image/svg+xml</dc:format>
        <dc:type
           rdf:resource="http://purl.org/dc/dcmitype/StillImage" />
        <dc:title></dc:title>
      </cc:Work>
    </rdf:RDF>
  </metadata>
  <g
     inkscape:label="Layer 1"
     inkscape:groupmode="layer"
     id="layer1"
     transform="translate(0,3043.6378)">
    <path
       sodipodi:type="spiral"
       style="fill:none;stroke:#000000;stroke-width:1px;stroke-linecap:butt;stroke-linejoin:miter;stroke-opacity:1"
       id="path3031"
       sodipodi:cx="751.43951"
       sodipodi:cy="2442.833"
       sodipodi:expansion="1"
       sodipodi:revolution="3"
       sodipodi:radius="799.98627"
       sodipodi:argument="-18.104599"
       sodipodi:t0="0"
       d="m 751.43951,2442.833 c 29.48558,27.1922 -22.1074,53.1616 -45.19523,49.007 -62.56658,-11.2589 -75.74886,-90.282 -52.8187,-139.3975 41.01668,-87.856 156.1624,-102.613 233.59964,-56.6304 113.64228,67.4814 130.23008,222.9208 60.44216,327.8018 -93.0163,139.7899 -289.98888,158.1652 -422.00403,64.2539 -166.1276,-118.1777 -186.26429,-357.204 -68.06563,-516.2062 143.15442,-192.573 424.50185,-214.4583 610.40848,-71.8774 219.0844,168.0267 242.7118,491.8513 75.689,704.6107 C 950.66085,3050.034 584.26016,3075.4 344.68241,2883.8957 72.458949,2666.2963 45.356175,2257.2526 261.36986,1990.8807 c 242.3347,-298.8291 694.06873,-327.6675 987.21724,-87.1243 328.2571,269.3516 358.3451,758.7063 90.936,1081.4194"
       transform="translate(0,-3043.6378)" />
    <path
       sodipodi:type="spiral"
       style="fill:#00ff00;stroke:#000000;stroke-width:1px;stroke-linecap:butt;stroke-linejoin:miter;stroke-opacity:1"
       id="path3033"
       sodipodi:cx="1489.8105"
       sodipodi:cy="1201.3242"
       sodipodi:expansion="1"
       sodipodi:revolution="3"
       sodipodi:radius="175.81888"
       sodipodi:argument="-18.011574"
       sodipodi:t0="0"
       d="m 1489.8105,1201.3242 c 5.8972,6.5524 -5.923,11.1819 -10.8904,9.8014 -13.4614,-3.7411 -14.7328,-21.3026 -8.7123,-31.5823 10.7692,-18.3879 36.2674,-19.2664 52.2741,-7.6232 23.4903,17.0868 23.9468,51.4398 6.5342,72.9659 -23.2084,28.6908 -66.6865,28.6906 -93.6577,5.4451 -33.9406,-29.2521 -33.4673,-81.9686 -4.3561,-114.3495 35.2575,-39.2177 97.2707,-38.2629 135.0413,-3.267 44.5113,41.2415 43.0706,112.5854 2.178,155.7331 -47.2123,49.8157 -127.9085,47.8863 -176.425,1.0889 -55.1275,-53.1742 -52.7075,-143.2374 2e-4,-197.1168 59.1301,-60.4445 158.5705,-57.5328 217.8086,1.0893 65.7654,65.0816 62.3612,173.9069 -2.1783,238.5004"
       transform="translate(0,-3043.6378)" />
    <path
       sodipodi:type="spiral"
       style="fill:none;stroke:#000000;stroke-width:1px;stroke-linecap:butt;stroke-linejoin:miter;stroke-opacity:1"
       id="path3035"
       sodipodi:cx="1372.194"
       sodipodi:cy="1573.7769"
       sodipodi:expansion="1"
       sodipodi:revolution="3"
       sodipodi:radius="349.0174"
       sodipodi:argument="-17.944729"
       sodipodi:t0="0"
       d="m 1372.194,1573.7769 c 10.8113,13.7599 -13.2142,21.3621 -22.8699,17.9692 -26.1665,-9.1948 -26.3561,-44.1468 -13.0685,-63.709 23.7682,-34.9924 74.3882,-33.3514 104.5481,-8.1679 44.2608,36.9579 40.61,105.0602 3.2671,145.3872 -49.7722,53.7497 -135.8876,47.9842 -186.2263,-1.6335 -63.3462,-62.4388 -55.4187,-166.7897 6.5342,-227.0654 75.0333,-73.002 197.7341,-62.8884 267.9046,11.4349 82.6934,87.5875 70.3801,228.7048 -16.3357,308.7436 -100.1168,92.4081 -259.693,77.8866 -349.5827,-21.2363 -102.1384,-112.6298 -85.4034,-290.6937 26.137,-390.4218 125.1315,-111.88 321.7033,-92.9276 431.2609,31.0377 121.6298,137.625 100.4575,352.7197 -35.9384,472.1"
       transform="translate(0,-3043.6378)" />
    <path
       sodipodi:type="spiral"
       style="fill:none;stroke:#000000;stroke-width:1px;stroke-linecap:butt;stroke-linejoin:miter;stroke-opacity:1"
       id="path3037"
       sodipodi:cx="522.74054"
       sodipodi:cy="1051.0363"
       sodipodi:expansion="1"
       sodipodi:revolution="3"
       sodipodi:radius="374.51041"
       sodipodi:argument="-18.101177"
       sodipodi:t0="0"
       d="m 522.74054,1051.0363 c 13.75992,12.777 -10.43459,24.8518 -21.23635,22.8698 -29.27209,-5.371 -35.3167,-42.3862 -24.50342,-65.3425 19.34242,-41.06355 73.27076,-47.78752 109.44882,-26.137 53.09276,31.773 60.60924,104.5675 27.77049,153.5551 -43.76889,65.2926 -136.00972,73.5794 -197.66129,29.404 -77.58221,-55.5903 -86.62618,-167.52105 -31.03756,-241.76754 67.32526,-89.92245 199.07124,-99.71721 285.87376,-32.6711 102.29377,79.01152 112.83604,230.64564 34.30463,329.98004 C 615.032,1335.6125 443.46334,1346.9005 331.61339,1256.8652 204.52237,1154.5615 192.48963,963.02697 294.04169,838.67276 407.96775,699.16613 619.49021,686.38923 756.34039,799.46752 908.27003,925.00585 921.79073,1156.5325 797.17916,1305.8725"
       transform="translate(0,-3043.6378)" />
    <path
       sodipodi:type="spiral"
       style="fill:none;stroke:#000000;stroke-width:1px;stroke-linecap:butt;stroke-linejoin:miter;stroke-opacity:1"
       id="path3039"
       sodipodi:cx="2215.113"
       sodipodi:cy="1985.4351"
       sodipodi:expansion="1"
       sodipodi:revolution="3"
       sodipodi:radius="65.668472"
       sodipodi:argument="-20.520021"
       sodipodi:t0="0"
       d="m 2215.113,1985.4351 c -0.3276,-3.2762 4.2546,-2.058 5.4453,-0.5446 3.2265,4.1014 -0.2717,9.6702 -4.3562,11.435 -7.3063,3.1568 -15.1781,-2.2137 -17.4247,-9.2569 -3.297,-10.3361 4.1574,-20.7809 14.1575,-23.4144 13.3287,-3.5101 26.4201,6.0984 29.4042,19.0582 3.7552,16.3087 -8.0374,32.0773 -23.9589,35.3939 -19.2831,4.017 -37.7446,-9.975 -41.3837,-28.8596 -4.2884,-22.2547 11.912,-43.4184 33.7603,-47.3734 25.2249,-4.5661 49.0965,13.8482 53.3632,38.661 4.848,28.1939 -15.7841,54.7776 -43.5617,59.3529 -31.1623,5.1328 -60.4609,-17.7197 -65.3426,-48.4624 -5.4197,-34.1302 19.6551,-66.1457 53.363,-71.3323"
       transform="translate(0,-3043.6378)" />
    <path
       sodipodi:type="spiral"
       style="fill:#00ff00;stroke:#000000;stroke-width:1px;stroke-linecap:butt;stroke-linejoin:miter;stroke-opacity:1"
       id="path3041"
       sodipodi:cx="2130.1677"
       sodipodi:cy="1240.5298"
       sodipodi:expansion="1"
       sodipodi:revolution="3"
       sodipodi:radius="149.00398"
       sodipodi:argument="-18.188513"
       sodipodi:t0="0"
       d="m 2130.1677,1240.5298 c 5.8971,4.5866 -3.2732,10.2121 -7.6233,9.8014 -11.7883,-1.113 -15.4686,-15.5741 -11.9794,-25.048 6.2412,-16.9467 27.3822,-21.4832 42.4726,-14.1576 22.1458,10.7507 27.6512,39.3417 16.3357,59.8974 -15.0818,27.3975 -51.3536,33.883 -77.3221,18.5137 -32.6786,-19.3406 -40.1476,-63.3902 -20.6918,-94.7467 23.5636,-37.9769 75.4408,-46.4311 112.1714,-22.8699 43.2858,27.766 52.7265,87.4999 25.048,129.5961 -31.9558,48.6017 -99.5648,59.0297 -147.0208,27.2261 -53.9224,-36.1373 -65.3385,-111.6339 -29.4041,-164.4455 40.3129,-59.2467 123.7057,-71.6513 181.8701,-31.5823 64.5735,44.4843 77.9672,135.78 33.7604,199.2949"
       transform="translate(0,-3043.6378)" />
    <path
       sodipodi:type="spiral"
       style="fill:#00ff00;stroke:#000000;stroke-width:1px;stroke-linecap:butt;stroke-linejoin:miter;stroke-opacity:1"
       id="path3043"
       sodipodi:cx="2515.689"
       sodipodi:cy="1475.7629"
       sodipodi:expansion="1"
       sodipodi:revolution="3"
       sodipodi:radius="1412.0195"
       sodipodi:argument="-17.71343"
       sodipodi:t0="0"
       d="m 2515.689,1475.7629 c 27.6158,59.4802 -63.6712,77.1007 -106.7262,49.5516 -94.515,-60.4764 -62.8454,-198.2918 7.6231,-263.0039 126.0518,-115.7547 323.8694,-62.3457 419.2816,64.7978 140.0211,186.5882 62.4833,451.3863 -121.9725,575.5592 -245.8505,165.503 -579.6224,62.9317 -731.8369,-179.1471 -191.5464,-304.6315 -63.5487,-708.2089 236.3218,-888.11457 366.2385,-219.72274 835.1981,-67.36334 1044.3922,293.49647 246.4859,425.1879 68.6598,963.8617 -350.671,1200.6699 -484.0576,273.3612 -1092.6107,69.9959 -1356.9477,-407.8457 -300.3128,-542.8752 -71.3598,-1221.41924 465.0204,-1513.22535 601.657,-327.318543 1350.2713,-72.74388 1669.503,522.19505 354.3639,660.4132 74.143,1479.1559 -579.3697,1825.7807"
       transform="translate(0,-3043.6378)" />
    <path
       sodipodi:type="spiral"
       style="fill:#00ff00;stroke:#000000;stroke-width:1px;stroke-linecap:butt;stroke-linejoin:miter;stroke-opacity:1"
       id="path3045"
       sodipodi:cx="405.12393"
       sodipodi:cy="371.47357"
       sodipodi:expansion="1"
       sodipodi:revolution="3"
       sodipodi:radius="1639.0048"
       sodipodi:argument="-17.96533"
       sodipodi:t0="0"
       d="m 405.12393,371.47357 c 46.90045,57.2245 -46.39381,106.03506 -105.6372,86.57885 C 175.74416,417.41395 171.47299,253.33059 231.96623,160.19918 340.17443,-6.391073 577.99691,-3.5837218 722.03553,111.73701 c 211.38246,169.23782 200.82962,489.33508 29.40381,682.28535 -228.48364,257.17234 -633.35813,238.43374 -874.5014,10.34548 -305.97061,-289.406 -278.77923,-775.241899 8.71287,-1066.71746 348.12776,-352.95137 919.37369,-317.35622 1258.93349,27.77122 400.091,406.65112 356.0373,1063.63195 -46.8295,1451.1496 -465.05231,447.3337 -1207.97454,394.7877 -1643.36565,-65.888 -494.64725,-523.37284 -433.58664,-1352.37608 84.94625,-1835.58161 581.63769,-542.01099 1496.8208,-472.42079 2027.7977,104.0046 589.412,639.862213 511.2812,1641.29781 -123.0629,2220.01371"
       transform="translate(0,-3043.6378)" />
    <path
       sodipodi:type="spiral"
       style="fill:#00ff00;stroke:#000000;stroke-width:1px;stroke-linecap:butt;stroke-linejoin:miter;stroke-opacity:1"
       id="path3047"
       sodipodi:cx="607.68591"
       sodipodi:cy="2037.7091"
       sodipodi:expansion="1"
       sodipodi:revolution="3"
       sodipodi:radius="2053.2544"
       sodipodi:argument="-18.167856"
       sodipodi:t0="0"
       d="m 607.68591,2037.7091 c 43.60779,35.3867 12.20174,97.5378 -28.20791,118.9178 -24.64414,13.0387 -52.02387,17.1256 -79.60741,13.9454 C 337.78088,2151.8841 291.1934,1951.607 341.9596,1822.0785 432.76843,1590.3822 725.31743,1533.9001 931.13187,1639.1196 1233.1728,1793.5335 1300.882,2188.997 1139.1385,2468.9704 921.81708,2845.1478 424.997,2923.0156 68.609311,2702.0249 -379.7849,2423.9823 -468.83945,1820.9417 -189.49301,1390.8172 148.77106,869.97411 858.73944,769.71032 1362.3932,1107.667 1955.83,1505.8691 2067.3177,2323.1777 1670.5911,2900.2317 1212.627,3566.3582 287.71634,3689.0802 -362.65197,3233.4775 -1101.5345,2715.8679 -1235.499,1683.1782 -720.94563,959.5559 -143.77181,147.86963 996.82202,2.6564329 1793.6544,576.21441 2680.6854,1214.6971 2836.5472,2458.87 2202.0438,3331.493"
       transform="translate(0,-3043.6378)" />
    <path
       sodipodi:type="spiral"
       style="fill:none;stroke:#000000;stroke-width:1px;stroke-linecap:butt;stroke-linejoin:miter;stroke-opacity:1"
       id="path3049"
       sodipodi:cx="2097.4966"
       sodipodi:cy="3442.5742"
       sodipodi:expansion="1"
       sodipodi:revolution="3"
       sodipodi:radius="33.318302"
       sodipodi:argument="-20.222958"
       sodipodi:t0="0"
       d="m 2097.4966,3442.5742 c 0.3276,-1.6381 2.3697,-0.3665 2.7226,0.5445 0.9562,2.469 -1.568,4.6512 -3.8117,4.9007 -4.0134,0.4464 -7.0348,-3.3281 -7.0787,-7.0787 -0.064,-5.5043 5.1032,-9.4644 10.3459,-9.2569 6.9876,0.2766 11.9119,6.8824 11.4349,13.613 -0.6002,8.4698 -8.6633,14.3686 -16.8801,13.6131 -9.9518,-0.915 -16.8303,-10.4451 -15.7912,-20.1473 1.2246,-11.4338 12.2274,-19.2953 23.4144,-17.9692 12.916,1.5309 21.7625,14.0099 20.1473,26.6815 -1.8352,14.3982 -15.7928,24.2311 -29.9486,22.3254 -15.8806,-2.1379 -26.7009,-17.576 -24.5035,-33.2158 2.4395,-17.3631 19.3592,-29.1714 36.4829,-26.6816"
       transform="translate(0,-3043.6378)" />
    <path
       sodipodi:type="spiral"
       style="fill:#008000;stroke:#000000;stroke-width:1px;stroke-linecap:butt;stroke-linejoin:miter;stroke-opacity:1"
       id="path3051"
       sodipodi:cx="1960.2771"
       sodipodi:cy="1763.2703"
       sodipodi:expansion="1"
       sodipodi:revolution="3"
       sodipodi:radius="2875.5037"
       sodipodi:argument="-17.97728"
       sodipodi:t0="0"
       d="m 1960.2771,1763.2703 c 50.5779,60.2288 -9.0964,137.3617 -70.3357,156.0415 -37.3473,11.392 -76.0815,9.7485 -113.1681,-1.9421 -44.4772,-14.0203 -85.0318,-42.5446 -115.0294,-77.9601 -106.1378,-125.3076 -93.9406,-309.9451 -9.6657,-443.1469 187.5642,-296.4571 601.6482,-296.1076 858.7103,-95.2908 377.245,294.7036 365.0179,851.4089 65.8864,1196.3136 -398.6334,459.6324 -1102.4708,434.9111 -1533.9168,36.482 C 499.92818,2032.4783 537.44482,1179.6087 1035.6804,662.24746 1639,35.768366 2641.8802,86.237157 3244.8037,684.57407 3957.1545,1391.5059 3893.8026,2540.9595 3193.0727,3231.3007 2384.3735,4028.0105 1084.5352,3951.606 308.7429,3150.1654 -159.9296,2665.9981 -377.64641,1975.9396 -287.9802,1309.684 -217.26243,784.2228 36.035133,294.0225 419.28254,-71.767737 958.96748,-586.86967 1724.0598,-823.72137 2461.253,-719.87959 c 578.3898,81.47257 1117.0009,363.49937 1517.5659,788.055841 561.5492,595.182659 817.5412,1435.328949 699.5006,2243.459449 -92.2145,631.3196 -402.975,1218.3473 -868.8489,1653.6802"
       transform="translate(0,-3043.6378)" />
    <path
       sodipodi:type="spiral"
       style="fill:#00ff00;stroke:#000000;stroke-width:1px;stroke-linecap:butt;stroke-linejoin:miter;stroke-opacity:1"
       id="path3053"
       sodipodi:cx="294.04156"
       sodipodi:cy="3677.8076"
       sodipodi:expansion="1"
       sodipodi:revolution="3"
       sodipodi:radius="890.19507"
       sodipodi:argument="-17.981016"
       sodipodi:t0="0"
       d="m 294.04156,3677.8076 c 28.83031,34.0722 -31.70479,55.6727 -56.63024,47.9179 -67.54642,-21.0151 -71.26381,-110.0866 -39.20548,-161.1784 57.34483,-91.3911 186.52173,-91.8926 265.72645,-30.4931 116.23612,90.1063 113.23223,264.0297 21.78072,370.2746 C 363.82254,4045.9363 143.78987,4039.2093 10.890349,3917.3969 -156.35014,3764.1086 -145.79971,3497.3954 6.5343908,3338.0262 191.03139,3145.0086 504.71867,3159.4333 690.45327,3342.3826 c 218.8818,215.5994 200.55438,576.4321 -13.06881,788.467 -246.63642,244.8026 -654.723445,222.555 -893.01508,-21.7812 -270.76211,-277.6304 -244.5831,-733.0453 30.49356,-997.5632 311.24936,-299.3021 808.84582,-269.3068 1102.1113,39.2059 325.53996,342.4652 291.64136,886.9752 -47.91833,1206.6594"
       transform="translate(0,-3043.6378)" />
    <path
       sodipodi:type="spiral"
       style="fill:none;stroke:#000000;stroke-width:1px;stroke-linecap:butt;stroke-linejoin:miter;stroke-opacity:1"
       id="path3055"
       sodipodi:cx="1855.729"
       sodipodi:cy="3605.9307"
       sodipodi:expansion="1"
       sodipodi:revolution="3"
       sodipodi:radius="26.941431"
       sodipodi:argument="-20.175373"
       sodipodi:t0="0"
       d="m 1855.729,3605.9307 c 0.3276,-1.3105 1.9281,-0.205 2.1781,0.5445 0.6774,2.0309 -1.4453,3.6964 -3.2671,3.8116 -3.2588,0.2062 -5.554,-2.9586 -5.4453,-5.9897 0.1597,-4.4482 4.4859,-7.448 8.7124,-7.0788 5.6332,0.4922 9.3565,6.0171 8.7123,11.435 -0.8106,6.8179 -7.5499,11.2721 -14.1575,10.3459 -8.0028,-1.1218 -13.192,-9.0837 -11.9795,-16.8802 1.4289,-9.1879 10.6181,-15.1144 19.6028,-13.613 10.3732,1.7333 17.0385,12.1528 15.2466,22.3254 -2.0361,11.5587 -13.6878,18.9638 -25.048,16.8801 -12.7444,-2.3376 -20.8901,-15.223 -18.5137,-27.7706 2.6382,-13.9302 16.7583,-22.8169 30.4932,-20.1473"
       transform="translate(0,-3043.6378)" />
    <path
       sodipodi:type="spiral"
       style="fill:none;stroke:#000000;stroke-width:1px;stroke-linecap:butt;stroke-linejoin:miter;stroke-opacity:1"
       id="path3057"
       sodipodi:cx="1189.2347"
       sodipodi:cy="3128.9299"
       sodipodi:expansion="1"
       sodipodi:revolution="3"
       sodipodi:radius="574.12286"
       sodipodi:argument="-18.128584"
       sodipodi:t0="0"
       d="m 1189.2347,3128.9299 c 21.6228,19.0018 -14.9461,38.5219 -31.5822,35.9384 -45.0828,-7.0009 -55.9006,-63.4699 -40.2945,-99.1029 27.9156,-63.7391 110.274,-76.3085 166.6235,-44.6506 82.6952,46.4592 97.2716,157.6952 49.0068,234.1442 -64.3294,101.8945 -205.333,118.4682 -301.6649,53.3629 -121.22382,-81.9285 -139.78508,-253.0735 -57.719,-369.1856 99.393,-140.6272 300.8717,-161.1714 436.7062,-62.0751 160.0762,116.7816 182.6014,348.7059 66.4313,504.2269 -134.1231,179.555 -396.5641,204.0604 -571.74755,70.7873 -199.05451,-151.4333 -225.53991,-444.4391 -75.14351,-639.2681 168.72203,-218.5687 492.32656,-247.0341 706.78886,-79.4997 238.0937,185.9951 268.5394,540.2232 83.8557,774.3095"
       transform="translate(0,-3043.6378)" />
    <path
       sodipodi:type="spiral"
       style="fill:#008000;stroke:#000000;stroke-width:1px;stroke-linecap:butt;stroke-linejoin:miter;stroke-opacity:1"
       id="path3059"
       sodipodi:cx="1169.632"
       sodipodi:cy="1861.2842"
       sodipodi:expansion="1"
       sodipodi:revolution="3"
       sodipodi:radius="852.18835"
       sodipodi:argument="-18.189186"
       sodipodi:t0="0"
       d="m 1169.632,1861.2842 c 33.7446,26.2093 -18.6813,58.4178 -43.5617,56.0857 -67.4243,-6.3197 -88.5286,-89.012 -68.6098,-143.2091 35.6299,-96.9458 156.5227,-122.9726 242.8565,-81.1338 126.6982,61.4 158.2947,224.8976 93.6579,342.5038 -86.1507,156.7507 -293.5725,193.9825 -442.15127,106.1821 C 764.8524,2031.2251 721.96621,1779.3241 833.11751,1599.9142 967.73662,1382.6247 1264.4018,1334.0736 1474.5636,1468.684 c 247.6684,158.6336 301.8916,500.2292 143.7543,741.0935 -182.5758,278.0874 -569.2071,337.9878 -840.74093,156.2784 C 469.04293,2159.586 403.46117,1727.8478 608.77454,1425.6675 841.0867,1083.7504 1313.0888,1013.3978 1648.8103,1244.341 c 372.6684,256.3591 448.6467,773.0743 193.8506,1139.6832"
       transform="translate(0,-3043.6378)" />
    <path
       sodipodi:type="spiral"
       style="fill:#008000;stroke:#000000;stroke-width:1px;stroke-linecap:butt;stroke-linejoin:miter;stroke-opacity:1"
       id="path3061"
       sodipodi:cx="1084.6866"
       sodipodi:cy="3527.5195"
       sodipodi:expansion="1"
       sodipodi:revolution="3"
       sodipodi:radius="821.16138"
       sodipodi:argument="-18.239481"
       sodipodi:t0="0"
       d="m 1084.6866,3527.5195 c 33.7446,23.5885 -15.1484,57.1247 -39.2055,56.0857 -65.1935,-2.8157 -89.50957,-81.3741 -72.96579,-134.4968 29.59289,-95.0241 144.67599,-125.9281 229.78809,-89.8459 124.9054,52.9521 163.2334,208.7671 106.7259,325.0794 -75.3156,155.026 -273.1291,200.905 -420.3706,123.606 -185.28845,-97.273 -238.76386,-337.6181 -140.48607,-515.6619 119.02757,-215.6349 402.17817,-276.7306 610.95317,-157.3662 246.0341,140.6669 314.765,466.7825 174.2462,706.2444 -162.2345,276.4684 -531.4162,352.8447 -801.53566,191.1264 -306.92689,-183.7547 -390.95581,-596.0708 -208.00639,-896.827 205.2416,-337.4029 660.74045,-429.0899 992.11815,-224.8864 371.0649,228.6597 469.2158,722.2518 241.7666,1087.4094"
       transform="translate(0,-3043.6378)" />
    <path
       sodipodi:type="spiral"
       style="fill:#808000;stroke:#000000;stroke-width:1px;stroke-linecap:butt;stroke-linejoin:miter;stroke-opacity:1"
       id="path3063"
       sodipodi:cx="2659.4426"
       sodipodi:cy="3351.0947"
       sodipodi:expansion="1"
       sodipodi:revolution="3"
       sodipodi:radius="1067.8064"
       sodipodi:argument="-18.033863"
       sodipodi:t0="0"
       d="m 2659.4426,3351.0947 c 36.0235,38.275 -31.7621,69.379 -64.7981,60.9864 -82.2417,-20.8931 -92.3382,-127.3514 -57.1746,-190.5826 62.8996,-113.1058 217.6017,-121.8914 316.367,-53.3628 144.9422,100.5685 152.364,309.0921 49.5511,442.1515 -137.0334,177.3472 -401.0247,183.2308 -567.9359,45.7392 -210.0407,-173.0191 -214.3023,-493.1686 -41.9275,-693.7203 208.7689,-242.8951 585.4316,-245.4922 819.5048,-38.1158 275.8471,244.3861 276.7566,677.7689 34.304,945.2893 -282.3115,311.5003 -767.5311,310.4918 -1071.0737,30.4922 -344.8544,-318.1071 -342.1522,-859.6564 -26.6805,-1196.8581 353.8643,-378.2388 951.8082,-373.8374 1322.6426,-22.8687 411.6455,389.5935 405.5411,1043.9798 19.0569,1448.427"
       transform="translate(0,-3043.6378)" />
    <path
       sodipodi:type="spiral"
       style="fill:#008000;stroke:#000000;stroke-width:1px;stroke-linecap:butt;stroke-linejoin:miter;stroke-opacity:1"
       id="path3065"
       sodipodi:cx="3665.718"
       sodipodi:cy="3762.7529"
       sodipodi:expansion="1"
       sodipodi:revolution="3"
       sodipodi:radius="633.14893"
       sodipodi:argument="-18.042263"
       sodipodi:t0="0"
       d="m 3665.718,3762.7529 c 21.9504,22.9332 -20.084,40.9031 -38.1165,36.4829 -48.867,-11.9783 -55.3837,-75.0495 -34.8493,-112.7159 36.7312,-67.3763 128.4138,-73.356 187.3154,-33.2157 86.4403,58.9074 91.8795,182.5088 31.5821,261.9148 -80.3669,105.8357 -236.864,110.6391 -336.5143,29.9485 -125.3996,-101.5408 -129.5209,-291.3434 -28.3149,-411.1137 122.5741,-145.0577 345.893,-148.4737 485.7131,-26.6813 164.7732,143.5281 167.471,400.4861 25.0478,560.3125 -164.4333,184.526 -455.1084,186.498 -634.912,23.4142 -204.3042,-185.3062 -205.5456,-509.7512 -21.7806,-709.5114 206.1567,-224.1008 564.4089,-224.6084 784.1109,-20.147 243.9108,226.991 243.6824,619.0778 18.5133,858.7103"
       transform="translate(0,-3043.6378)" />
    <path
       sodipodi:type="spiral"
       style="fill:#00ff00;stroke:#000000;stroke-width:1px;stroke-linecap:butt;stroke-linejoin:miter;stroke-opacity:1"
       id="path3067"
       sodipodi:cx="1489.8105"
       sodipodi:cy="3370.6975"
       sodipodi:expansion="1"
       sodipodi:revolution="3"
       sodipodi:radius="2053.5144"
       sodipodi:argument="-18.247433"
       sodipodi:t0="0"
       d="m 1489.8105,3370.6975 c 46.2887,31.8123 19.9192,96.2714 -18.6679,120.7991 -23.5326,14.9584 -50.5043,21.2096 -78.2568,20.232 -163.083,-5.7448 -225.4515,-201.7096 -185.1374,-334.8806 72.1125,-238.2118 359.2821,-317.7808 572.8365,-229.2437 313.3996,129.9317 412.3433,518.8105 273.3499,810.7923 -186.754,392.3121 -675.8739,509.4418 -1048.7481,317.4563 -469.137,-241.5493 -605.86428,-835.6777 -361.5626,-1286.7041 295.82795,-546.1534 995.668,-702.5569 1524.6599,-405.6688 623.2919,349.8125 799.419,1155.7742 449.7751,1762.6157 -403.6139,700.512 -1315.9577,896.394 -2000.57156,493.8815 C -160.3013,4182.6833 -375.9603,3163.7818 79.499808,2401.4497 590.38883,1546.3428 1715.9724,1310.8906 2555.9831,1819.3557 c 935.097,566.0215 1189.4001,1794.0229 626.2003,2714.4391"
       transform="translate(0,-3043.6378)" />
    <path
       sodipodi:type="spiral"
       style="fill:none;stroke:#000000;stroke-width:1px;stroke-linecap:butt;stroke-linejoin:miter;stroke-opacity:1"
       id="path3069"
       sodipodi:cx="3169.1145"
       sodipodi:cy="567.50128"
       sodipodi:expansion="1"
       sodipodi:revolution="3"
       sodipodi:radius="372.50995"
       sodipodi:argument="-19.510599"
       sodipodi:t0="0"
       d="m 3169.1145,567.50128 c 14.7428,-11.4666 22.7303,14.21575 19.0583,24.50346 -9.9511,27.87907 -47.2563,27.89762 -68.0652,13.61304 -37.2223,-25.55176 -35.2048,-79.56972 -8.1678,-111.62688 39.6777,-47.04519 112.3439,-42.7906 155.1885,-2.72262 57.1052,53.40432 50.499,145.28475 -2.7225,198.75031 -66.9739,67.28095 -178.3057,58.27132 -242.3121,-8.16781 -77.5203,-80.46669 -66.081,-211.37172 13.6131,-285.87373 93.9166,-87.79804 244.466,-73.9141 329.4354,19.05823 98.1005,107.34024 81.7628,277.57925 -24.5034,372.99716 -120.7465,108.41989 -310.7057,89.62245 -416.5589,-29.94866 -118.7513,-134.14071 -97.49,-343.84173 35.3939,-460.12058 C 3107,168.87164 3336.4588,192.5997 3463.156,338.80228"
       transform="translate(0,-3043.6378)" />
    <path
       sodipodi:type="spiral"
       style="fill:#00ff00;stroke:#000000;stroke-width:1px;stroke-linecap:butt;stroke-linejoin:miter;stroke-opacity:1"
       id="path3071"
       sodipodi:cx="3855.2117"
       sodipodi:cy="5.5551772"
       sodipodi:expansion="1"
       sodipodi:revolution="3"
       sodipodi:radius="700.17236"
       sodipodi:argument="-18.456919"
       sodipodi:t0="0"
       d="m 3855.2117,5.5551772 c 32.4341,13.4322968 -2.1047,50.3475548 -22.3254,53.9076248 -54.7969,9.647569 -89.4924,-51.286123 -85.4899,-98.558348 7.1596,-84.558924 97.2913,-131.457814 174.7914,-117.072154 113.7344,21.11155 174.3067,143.790395 148.6544,251.024323 C 4036.6516,237.78258 3880.3944,312.36717 3743.5849,275.0933 3571.424,228.18794 3482.6914,37.916932 3531.7659,-128.39699 c 59.4359,-201.42845 283.9443,-304.37936 479.7233,-243.4012 230.7187,71.86065 347.9297,330.736593 274.9835,555.95626 -84.2194,260.02502 -377.5452,391.52313 -632.1893,306.56573 -289.3428,-96.534 -435.1466,-424.365214 -338.148,-708.42224 108.8179,-318.66905 471.1937,-478.7921 784.6552,-369.73025 348.0018,121.07933 522.454,518.028432 401.3126,860.8882"
       transform="translate(0,-3043.6378)" />
    <use
       id="use3073"
       xlink:href="#path3071"
       x="0"
       y="0"
       width="4096"
       height="4096"
       transform="translate(-3651.9014,1539.4974)" />
    <use
       id="use3075"
       xlink:href="#path3071"
       x="0"
       y="0"
       width="4096"
       height="4096"
       transform="translate(-3726.6906,1423.7402)" />
    <use
       id="use3077"
       xlink:href="#path3071"
       x="0"
       y="0"
       width="4096"
       height="4096"
       transform="translate(-3435.4501,1349.444)" />
    <use
       id="use3079"
       xlink:href="#path3071"
       x="0"
       y="0"
       width="4096"
       height="4096"
       transform="translate(-3366.8868,1406.7589)" />
    <use
       id="use3081"
       xlink:href="#path3071"
       x="0"
       y="0"
       width="4096"
       height="4096"
       transform="translate(-3252.1309,1288.0121)" />
    <use
       id="use3083"
       xlink:href="#path3071"
       x="0"
       y="0"
       width="4096"
       height="4096"
       transform="translate(-2951.9164,1308.5014)" />
    <use
       id="use3085"
       xlink:href="#path3071"
       x="0"
       y="0"
       width="4096"
       height="4096"
       transform="translate(-2680.9704,1152.9251)" />
    <use
       id="use3087"
       xlink:href="#path3071"
       x="0"
       y="0"
       width="4096"
       height="4096"
       transform="translate(-2376.2027,1096.818)" />
    <use
       id="use3089"
       xlink:href="#path3071"
       x="0"
       y="0"
       width="4096"
       height="4096"
       transform="translate(-2288.2638,968.80389)" />
    <use
       id="use3091"
       xlink:href="#path3071"
       x="0"
       y="0"
       width="4096"
       height="4096"
       transform="translate(-2092.7514,1133.5114)" />
    <use
       id="use3093"
       xlink:href="#path3071"
       x="0"
       y="0"
       width="4096"
       height="4096"
       transform="translate(-1653.7597,778.99891)" />
    <use
       id="use3095"
       xlink:href="#path3071"
       x="0"
       y="0"
       width="4096"
       height="4096"
       transform="translate(-1480.506,1117.9123)" />
    <use
       id="use3097"
       xlink:href="#path3071"
       x="0"
       y="0"
       width="4096"
       height="4096"
       transform="translate(-1577.3879,1078.2228)" />
    <use
       id="use3099"
       xlink:href="#path3071"
       x="0"
       y="0"
       width="4096"
       height="4096"
       transform="translate(-1765.0026,873.49208)" />
    <use
       id="use3101"
       xlink:href="#path3071"
       x="0"
       y="0"
       width="4096"
       height="4096"
       transform="translate(-240.16758,1302.9182)" />
    <use
       id="use3103"
       xlink:href="#path3071"
       x="0"
       y="0"
       width="4096"
       height="4096"
       transform="translate(-479.17035,1535.943)" />
    <use
       id="use3105"
       xlink:href="#path3071"
       x="0"
       y="0"
       width="4096"
       height="4096"
       transform="translate(-124.36842,1743.9654)" />
    <use
       id="use3107"
       xlink:href="#path3071"
       x="0"
       y="0"
       width="4096"
       height="4096"
       transform="translate(-512.77531,1960.6126)" />
    <use
       id="use3109"
       xlink:href="#path3071"
       x="0"
       y="0"
       width="4096"
       height="4096"
       transform="translate(-1089.4286,2245.1845)" />
    <use
       id="use3111"
       xlink:href="#path3071"
       x="0"
       y="0"
       width="4096"
       height="4096"
       transform="translate(-2322.8113,2409.766)" />
    <use
       id="use3113"
       xlink:href="#path3071"
       x="0"
       y="0"
       width="4096"
       height="4096"
       transform="translate(-2990.0302,2199.7463)" />
    <use
       id="use3115"
       xlink:href="#path3071"
       x="0"
       y="0"
       width="4096"
       height="4096"
       transform="translate(-2620.8552,1648.8837)" />
    <use
       id="use3117"
       xlink:href="#path3071"
       x="0"
       y="0"
       width="4096"
       height="4096"
       transform="translate(-2180.765,1420.7992)" />
    <use
       id="use3119"
       xlink:href="#path3071"
       x="0"
       y="0"
       width="4096"
       height="4096"
       transform="translate(-668.17131,2291.7628)" />
    <use
       id="use3121"
       xlink:href="#path3071"
       x="0"
       y="0"
       width="4096"
       height="4096"
       transform="translate(-1623.728,2945.5352)" />
    <use
       id="use3123"
       xlink:href="#path3071"
       x="0"
       y="0"
       width="4096"
       height="4096"
       transform="translate(-1933.1735,2825.7787)" />
    <use
       id="use3125"
       xlink:href="#path3071"
       x="0"
       y="0"
       width="4096"
       height="4096"
       transform="translate(-2258.6371,2800.537)" />
    <use
       id="use3127"
       xlink:href="#path3071"
       x="0"
       y="0"
       width="4096"
       height="4096"
       transform="translate(-2297.114,2511.8131)" />
    <use
       id="use3129"
       xlink:href="#path3071"
       x="0"
       y="0"
       width="4096"
       height="4096"
       transform="translate(-2296.3268,2589.5615)" />
    <use
       id="use3131"
       xlink:href="#path3071"
       x="0"
       y="0"
       width="4096"
       height="4096"
       transform="translate(-2065.9018,2293.5993)" />
    <use
       id="use3133"
       xlink:href="#path3071"
       x="0"
       y="0"
       width="4096"
       height="4096"
       transform="translate(-1950.9898,2198.4317)" />
    <use
       id="use3135"
       xlink:href="#path3071"
       x="0"
       y="0"
       width="4096"
       height="4096"
       transform="translate(-1932.8775,2373.9626)" />
    <use
       id="use3137"
       xlink:href="#path3071"
       x="0"
       y="0"
       width="4096"
       height="4096"
       transform="translate(-1797.2748,2251.0178)" />
    <use
       id="use3139"
       xlink:href="#path3071"
       x="0"
       y="0"
       width="4096"
       height="4096"
       transform="translate(-273.78475,2298.1354)" />
    <use
       id="use3141"
       xlink:href="#path3071"
       x="0"
       y="0"
       width="4096"
       height="4096"
       transform="translate(-90.975016,2450.4082)" />
    <use
       id="use3143"
       xlink:href="#path3071"
       x="0"
       y="0"
       width="4096"
       height="4096"
       transform="translate(-537.65786,2275.6777)" />
    <use
       id="use3145"
       xlink:href="#path3071"
       x="0"
       y="0"
       width="4096"
       height="4096"
       transform="translate(-642.7131,2088.3895)" />
    <use
       id="use3147"
       xlink:href="#path3071"
       x="0"
       y="0"
       width="4096"
       height="4096"
       transform="translate(-931.93364,2109.6815)" />
    <use
       id="use3149"
       xlink:href="#path3071"
       x="0"
       y="0"
       width="4096"
       height="4096"
       transform="translate(-1427.6583,2588.6842)" />
    <use
       id="use3151"
       xlink:href="#path3071"
       x="0"
       y="0"
       width="4096"
       height="4096"
       transform="translate(-1602.6881,3065.0164)" />
    <use
       id="use3153"
       xlink:href="#path3071"
       x="0"
       y="0"
       width="4096"
       height="4096"
       transform="translate(-1361.7242,3302.652)" />
    <use
       id="use3155"
       xlink:href="#path3071"
       x="0"
       y="0"
       width="4096"
       height="4096"
       transform="translate(-145.56394,3019.432)" />
    <use
       id="use3157"
       xlink:href="#path3071"
       x="0"
       y="0"
       width="4096"
       height="4096"
       transform="translate(58.984338,2431.3696)" />
    <use
       id="use3159"
       xlink:href="#path3071"
       x="0"
       y="0"
       width="4096"
       height="4096"
       transform="translate(-537.21485,2049.1402)" />
    <use
       id="use3161"
       xlink:href="#path3071"
       x="0"
       y="0"
       width="4096"
       height="4096"
       transform="translate(-3029.9505,1633.8311)" />
    <use
       id="use3163"
       xlink:href="#path3071"
       x="0"
       y="0"
       width="4096"
       height="4096"
       transform="translate(-3043.7111,2077.2358)" />
    <use
       id="use3165"
       xlink:href="#path3071"
       x="0"
       y="0"
       width="4096"
       height="4096"
       transform="translate(-1749.7031,2818.2249)" />
    <use
       id="use3167"
       xlink:href="#path3071"
       x="0"
       y="0"
       width="4096"
       height="4096"
       transform="translate(-1316.3792,2403.0395)" />
    <use
       id="use3169"
       xlink:href="#path3071"
       x="0"
       y="0"
       width="4096"
       height="4096"
       transform="translate(-2812.2747,312.83414)" />
    <use
       id="use3171"
       xlink:href="#path3071"
       x="0"
       y="0"
       width="4096"
       height="4096"
       transform="translate(-4138.1281,1207.8821)" />
    <use
       id="use3173"
       xlink:href="#path3071"
       x="0"
       y="0"
       width="4096"
       height="4096"
       transform="translate(-4414.473,1919.9075)" />
    <use
       id="use3175"
       xlink:href="#path3071"
       x="0"
       y="0"
       width="4096"
       height="4096"
       transform="translate(-4128.965,2294.745)" />
    <use
       id="use3177"
       xlink:href="#path3071"
       x="0"
       y="0"
       width="4096"
       height="4096"
       transform="translate(-2762.5936,2995.3106)" />
    <use
       id="use3179"
       xlink:href="#path3071"
       x="0"
       y="0"
       width="4096"
       height="4096"
       transform="translate(-2039.7373,2528.0953)" />
    <use
       id="use3181"
       xlink:href="#path3071"
       x="0"
       y="0"
       width="4096"
       height="4096"
       transform="translate(-1829.5636,2484.3225)" />
    <use
       id="use3183"
       xlink:href="#path3071"
       x="0"
       y="0"
       width="4096"
       height="4096"
       transform="translate(-3089.2686,2789.0335)" />
    <use
       id="use3185"
       xlink:href="#path3071"
       x="0"
       y="0"
       width="4096"
       height="4096"
       transform="translate(-335.12234,3711.3566)" />
    <use
       id="use3187"
       xlink:href="#path3071"
       x="0"
       y="0"
       width="4096"
       height="4096"
       transform="translate(-569.75893,2521.7976)" />
    <use
       id="use3189"
       xlink:href="#path3071"
       x="0"
       y="0"
       width="4096"
       height="4096"
       transform="translate(-891.98005,1813.9943)" />
    <use
       id="use3191"
       xlink:href="#path3071"
       x="0"
       y="0"
       width="4096"
       height="4096"
       transform="translate(-883.70387,2685.4119)" />
    <use
       id="use3193"
       xlink:href="#path3071"
       x="0"
       y="0"
       width="4096"
       height="4096"
       transform="translate(10.244397,2437.4927)" />
    <use
       id="use3195"
       xlink:href="#path3071"
       x="0"
       y="0"
       width="4096"
       height="4096"
       transform="translate(-1201.3052,804.14707)" />
    <use
       id="use3197"
       xlink:href="#path3071"
       x="0"
       y="0"
       width="4096"
       height="4096"
       transform="translate(-2216.3514,1638.5355)" />
    <use
       id="use3199"
       xlink:href="#path3071"
       x="0"
       y="0"
       width="4096"
       height="4096"
       transform="translate(-1990.4696,2075.2908)" />
    <use
       id="use3201"
       xlink:href="#path3071"
       x="0"
       y="0"
       width="4096"
       height="4096"
       transform="translate(-428.13909,2163.9645)" />
    <use
       id="use3203"
       xlink:href="#path3071"
       x="0"
       y="0"
       width="4096"
       height="4096"
       transform="translate(-243.33197,1106.1088)" />
    <use
       id="use3205"
       xlink:href="#path3071"
       x="0"
       y="0"
       width="4096"
       height="4096"
       transform="translate(-1013.2916,960.79851)" />
    <use
       id="use3207"
       xlink:href="#path3071"
       x="0"
       y="0"
       width="4096"
       height="4096"
       transform="translate(-1585.456,966.37777)" />
    <use
       id="use3209"
       xlink:href="#path3071"
       x="0"
       y="0"
       width="4096"
       height="4096"
       transform="translate(-1427.2557,1720.0368)" />
    <use
       id="use3211"
       xlink:href="#path3071"
       x="0"
       y="0"
       width="4096"
       height="4096"
       transform="translate(-478.47668,2223.5885)" />
    <use
       id="use3213"
       xlink:href="#path3071"
       x="0"
       y="0"
       width="4096"
       height="4096"
       transform="translate(103.08233,2369.8879)" />
    <use
       id="use3215"
       xlink:href="#path3071"
       x="0"
       y="0"
       width="4096"
       height="4096"
       transform="translate(-1034.5205,305.95319)" />
    <use
       id="use3217"
       xlink:href="#path3071"
       x="0"
       y="0"
       width="4096"
       height="4096"
       transform="translate(-1502.0779,511.45254)" />
    <use
       id="use3219"
       xlink:href="#path3071"
       x="0"
       y="0"
       width="4096"
       height="4096"
       transform="translate(-1884.1967,697.03214)" />
    <use
       id="use3221"
       xlink:href="#path3071"
       x="0"
       y="0"
       width="4096"
       height="4096"
       transform="translate(-1780.8579,1024.4366)" />
    <use
       id="use3223"
       xlink:href="#path3071"
       x="0"
       y="0"
       width="4096"
       height="4096"
       transform="translate(-893.49509,1437.7016)" />
    <use
       id="use3225"
       xlink:href="#path3071"
       x="0"
       y="0"
       width="4096"
       height="4096"
       transform="translate(-782.65885,1547.0487)" />
    <use
       id="use3227"
       xlink:href="#path3071"
       x="0"
       y="0"
       width="4096"
       height="4096"
       transform="translate(-1882.6266,985.33311)" />
    <use
       id="use3229"
       xlink:href="#path3071"
       x="0"
       y="0"
       width="4096"
       height="4096"
       transform="translate(-2842.3495,778.50885)" />
    <use
       id="use3231"
       xlink:href="#path3071"
       x="0"
       y="0"
       width="4096"
       height="4096"
       transform="translate(-2764.5417,418.07821)" />
    <use
       id="use3233"
       xlink:href="#path3071"
       x="0"
       y="0"
       width="4096"
       height="4096"
       transform="translate(-2911.3761,325.65053)" />
    <use
       id="use3235"
       xlink:href="#path3071"
       x="0"
       y="0"
       width="4096"
       height="4096"
       transform="translate(-3015.7862,625.20184)" />
    <use
       id="use3237"
       xlink:href="#path3071"
       x="0"
       y="0"
       width="4096"
       height="4096"
       transform="translate(-2521.2748,3141.5513)" />
    <use
       id="use3239"
       xlink:href="#path3071"
       x="0"
       y="0"
       width="4096"
       height="4096"
       transform="translate(-2306.61,2905.9446)" />
    <use
       id="use3241"
       xlink:href="#path3071"
       x="0"
       y="0"
       width="4096"
       height="4096"
       transform="translate(-2862.848,2940.5876)" />
    <use
       id="use3243"
       xlink:href="#path3071"
       x="0"
       y="0"
       width="4096"
       height="4096"
       transform="translate(-3654.6369,3459.2193)" />
    <use
       id="use3245"
       xlink:href="#path3071"
       x="0"
       y="0"
       width="4096"
       height="4096"
       transform="translate(-4014.7128,3826.3811)" />
    <use
       id="use3247"
       xlink:href="#path3071"
       x="0"
       y="0"
       width="4096"
       height="4096"
       transform="translate(-2878.9366,4641.2308)" />
    <use
       id="use3249"
       xlink:href="#path3071"
       x="0"
       y="0"
       width="4096"
       height="4096"
       transform="translate(-2749.786,4607.9855)" />
    <use
       id="use3251"
       xlink:href="#path3071"
       x="0"
       y="0"
       width="4096"
       height="4096"
       transform="translate(-2367.8725,4595.4892)" />
    <use
       id="use3253"
       xlink:href="#path3071"
       x="0"
       y="0"
       width="4096"
       height="4096"
       transform="translate(-2133.0631,4167.2338)" />
    <use
       id="use3255"
       xlink:href="#path3071"
       x="0"
       y="0"
       width="4096"
       height="4096"
       transform="translate(-1993.2699,4354.1674)" />
    <use
       id="use3257"
       xlink:href="#path3071"
       x="0"
       y="0"
       width="4096"
       height="4096"
       transform="translate(-2157.7665,3724.7417)" />
    <use
       id="use3259"
       xlink:href="#path3071"
       x="0"
       y="0"
       width="4096"
       height="4096"
       transform="translate(-2007.699,3786.3424)" />
    <use
       id="use3261"
       xlink:href="#path3071"
       x="0"
       y="0"
       width="4096"
       height="4096"
       transform="translate(-2738.4411,4418.7771)" />
    <use
       id="use3263"
       xlink:href="#path3071"
       x="0"
       y="0"
       width="4096"
       height="4096"
       transform="translate(-1900.1945,4527.8672)" />
    <use
       id="use3265"
       xlink:href="#path3071"
       x="0"
       y="0"
       width="4096"
       height="4096"
       transform="translate(-1068.9426,3788.7784)" />
    <use
       id="use3267"
       xlink:href="#path3071"
       x="0"
       y="0"
       width="4096"
       height="4096"
       transform="translate(-2823.942,2437.5551)" />
    <use
       id="use3269"
       xlink:href="#path3071"
       x="0"
       y="0"
       width="4096"
       height="4096"
       transform="translate(-1894.9592,3453.7753)" />
    <use
       id="use3271"
       xlink:href="#path3071"
       x="0"
       y="0"
       width="4096"
       height="4096"
       transform="translate(-830.32057,3231.6885)" />
    <use
       id="use3273"
       xlink:href="#path3071"
       x="0"
       y="0"
       width="4096"
       height="4096"
       transform="translate(-889.52063,3006.3668)" />
    <use
       id="use3275"
       xlink:href="#path3071"
       x="0"
       y="0"
       width="4096"
       height="4096"
       transform="translate(-1615.8875,2803.5175)" />
    <use
       id="use3277"
       xlink:href="#path3071"
       x="0"
       y="0"
       width="4096"
       height="4096"
       transform="translate(-136.3448,3291.0672)" />
    <use
       id="use3279"
       xlink:href="#path3071"
       x="0"
       y="0"
       width="4096"
       height="4096"
       transform="translate(-393.5435,2161.3352)" />
    <use
       id="use3281"
       xlink:href="#path3071"
       x="0"
       y="0"
       width="4096"
       height="4096"
       transform="translate(695.33247,1809.8652)" />
    <use
       id="use3283"
       xlink:href="#path3071"
       x="0"
       y="0"
       width="4096"
       height="4096"
       transform="translate(621.76487,1849.8442)" />
    <use
       id="use3285"
       xlink:href="#path3071"
       x="0"
       y="0"
       width="4096"
       height="4096"
       transform="translate(-236.27311,947.99408)" />
    <use
       id="use3287"
       xlink:href="#path3071"
       x="0"
       y="0"
       width="4096"
       height="4096"
       transform="translate(-417.9453,1073.8686)" />
    <use
       id="use3289"
       xlink:href="#path3071"
       x="0"
       y="0"
       width="4096"
       height="4096"
       transform="translate(-194.87123,2439.6897)" />
    <use
       id="use3291"
       xlink:href="#path3071"
       x="0"
       y="0"
       width="4096"
       height="4096"
       transform="translate(324.74484,2461.847)" />
    <use
       id="use3293"
       xlink:href="#path3071"
       x="0"
       y="0"
       width="4096"
       height="4096"
       transform="translate(698.50968,2174.6316)" />
    <use
       id="use3295"
       xlink:href="#path3071"
       x="0"
       y="0"
       width="4096"
       height="4096"
       transform="translate(-222.60478,865.54353)" />
    <use
       id="use3297"
       xlink:href="#path3071"
       x="0"
       y="0"
       width="4096"
       height="4096"
       transform="translate(-206.36577,915.16376)" />
    <use
       id="use3299"
       xlink:href="#path3071"
       x="0"
       y="0"
       width="4096"
       height="4096"
       transform="translate(-1224.3182,2241.7464)" />
    <use
       id="use3301"
       xlink:href="#path3071"
       x="0"
       y="0"
       width="4096"
       height="4096"
       transform="translate(-668.90353,2604.6121)" />
    <use
       id="use3303"
       xlink:href="#path3071"
       x="0"
       y="0"
       width="4096"
       height="4096"
       transform="translate(-233.19443,2662.0207)" />
    <use
       id="use3305"
       xlink:href="#path3071"
       x="0"
       y="0"
       width="4096"
       height="4096"
       transform="translate(-1058.2288,1676.6709)" />
    <use
       id="use3307"
       xlink:href="#path3071"
       x="0"
       y="0"
       width="4096"
       height="4096"
       transform="translate(-803.25985,1203.4384)" />
    <use
       id="use3309"
       xlink:href="#path3071"
       x="0"
       y="0"
       width="4096"
       height="4096"
       transform="translate(-1758.5729,1488.479)" />
    <use
       id="use3311"
       xlink:href="#path3071"
       x="0"
       y="0"
       width="4096"
       height="4096"
       transform="translate(-2736.3084,62.754053)" />
    <use
       id="use3313"
       xlink:href="#path3071"
       x="0"
       y="0"
       width="4096"
       height="4096"
       transform="translate(-4252.6067,212.36883)" />
    <use
       id="use3315"
       xlink:href="#path3071"
       x="0"
       y="0"
       width="4096"
       height="4096"
       transform="translate(-4153.4164,1845.478)" />
    <use
       id="use3317"
       xlink:href="#path3071"
       x="0"
       y="0"
       width="4096"
       height="4096"
       transform="translate(-2644.3973,2967.7266)" />
    <use
       id="use3319"
       xlink:href="#path3071"
       x="0"
       y="0"
       width="4096"
       height="4096"
       transform="translate(-2377.9817,2947.2257)" />
    <use
       id="use3321"
       xlink:href="#path3071"
       x="0"
       y="0"
       width="4096"
       height="4096"
       transform="translate(-1877.073,1518.803)" />
    <use
       id="use3323"
       xlink:href="#path3071"
       x="0"
       y="0"
       width="4096"
       height="4096"
       transform="translate(-2204.5551,436.9085)" />
    <use
       id="use3325"
       xlink:href="#path3071"
       x="0"
       y="0"
       width="4096"
       height="4096"
       transform="translate(-3575.4466,1394.8799)" />
    <use
       id="use3327"
       xlink:href="#path3071"
       x="0"
       y="0"
       width="4096"
       height="4096"
       transform="translate(-1722.2224,1006.8399)" />
    <use
       id="use3329"
       xlink:href="#path3071"
       x="0"
       y="0"
       width="4096"
       height="4096"
       transform="translate(-3056.974,822.94623)" />
    <use
       id="use3331"
       xlink:href="#path3071"
       x="0"
       y="0"
       width="4096"
       height="4096"
       transform="translate(-2399.8144,2417.1385)" />
    <use
       id="use3333"
       xlink:href="#path3071"
       x="0"
       y="0"
       width="4096"
       height="4096"
       transform="translate(-1730.7443,2081.3663)" />
    <use
       id="use3335"
       xlink:href="#path3071"
       x="0"
       y="0"
       width="4096"
       height="4096"
       transform="translate(-2696.0637,1696.0843)" />
    <use
       id="use3337"
       xlink:href="#path3071"
       x="0"
       y="0"
       width="4096"
       height="4096"
       transform="translate(-2675.5017,1837.8149)" />
    <use
       id="use3339"
       xlink:href="#path3071"
       x="0"
       y="0"
       width="4096"
       height="4096"
       transform="translate(-2333.9804,1619.7754)" />
    <use
       id="use3341"
       xlink:href="#path3071"
       x="0"
       y="0"
       width="4096"
       height="4096"
       transform="translate(-2487.687,-112.03237)" />
    <use
       id="use3343"
       xlink:href="#path3071"
       x="0"
       y="0"
       width="4096"
       height="4096"
       transform="translate(-2464.0631,-73.427997)" />
    <use
       id="use3345"
       xlink:href="#path3071"
       x="0"
       y="0"
       width="4096"
       height="4096"
       transform="translate(-3472.7745,303.49207)" />
    <use
       id="use3347"
       xlink:href="#path3071"
       x="0"
       y="0"
       width="4096"
       height="4096"
       transform="translate(-3919.4909,1409.9808)" />
    <use
       id="use3349"
       xlink:href="#path3071"
       x="0"
       y="0"
       width="4096"
       height="4096"
       transform="translate(-1869.4896,1718.6213)" />
    <use
       id="use3351"
       xlink:href="#path3071"
       x="0"
       y="0"
       width="4096"
       height="4096"
       transform="translate(-3397.5584,431.26785)" />
    <use
       id="use3353"
       xlink:href="#path3071"
       x="0"
       y="0"
       width="4096"
       height="4096"
       transform="translate(-3535.5608,1481.0285)" />
    <use
       id="use3355"
       xlink:href="#path3071"
       x="0"
       y="0"
       width="4096"
       height="4096"
       transform="translate(-759.13044,3327.8578)" />
    <use
       id="use3357"
       xlink:href="#path3071"
       x="0"
       y="0"
       width="4096"
       height="4096"
       transform="translate(-722.89805,1687.0985)" />
    <use
       id="use3359"
       xlink:href="#path3071"
       x="0"
       y="0"
       width="4096"
       height="4096"
       transform="translate(-1352.1676,820.50829)" />
    <use
       id="use3361"
       xlink:href="#path3071"
       x="0"
       y="0"
       width="4096"
       height="4096"
       transform="translate(-1424.4957,681.64518)" />
    <use
       id="use3363"
       xlink:href="#path3071"
       x="0"
       y="0"
       width="4096"
       height="4096"
       transform="translate(-1933.4146,2257.7197)" />
    <use
       id="use3365"
       xlink:href="#path3071"
       x="0"
       y="0"
       width="4096"
       height="4096"
       transform="translate(-1087.8188,708.06265)" />
    <use
       id="use3367"
       xlink:href="#path3071"
       x="0"
       y="0"
       width="4096"
       height="4096"
       transform="translate(-3052.187,1340.2108)" />
    <use
       id="use3369"
       xlink:href="#path3071"
       x="0"
       y="0"
       width="4096"
       height="4096"
       transform="translate(-602.66594,1758.8396)" />
    <use
       id="use3371"
       xlink:href="#path3071"
       x="0"
       y="0"
       width="4096"
       height="4096"
       transform="translate(-535.31804,1202.9634)" />
    <use
       id="use3373"
       xlink:href="#path3071"
       x="0"
       y="0"
       width="4096"
       height="4096"
       transform="translate(-379.36655,1780.8867)" />
    <use
       id="use3375"
       xlink:href="#path3071"
       x="0"
       y="0"
       width="4096"
       height="4096"
       transform="translate(264.01772,1521.4612)" />
    <use
       id="use3377"
       xlink:href="#path3071"
       x="0"
       y="0"
       width="4096"
       height="4096"
       transform="translate(-414.74281,542.68062)" />
    <use
       id="use3379"
       xlink:href="#path3071"
       x="0"
       y="0"
       width="4096"
       height="4096"
       transform="translate(-547.32691,2180.8751)" />
    <use
       id="use3381"
       xlink:href="#path3071"
       x="0"
       y="0"
       width="4096"
       height="4096"
       transform="translate(-167.00321,739.22142)" />
    <use
       id="use3383"
       xlink:href="#path3071"
       x="0"
       y="0"
       width="4096"
       height="4096"
       transform="translate(-2518.9443,2473.0289)" />
    <use
       id="use3385"
       xlink:href="#path3071"
       x="0"
       y="0"
       width="4096"
       height="4096"
       transform="translate(-2513.728,4062.7602)" />
    <use
       id="use3387"
       xlink:href="#path3071"
       x="0"
       y="0"
       width="4096"
       height="4096"
       transform="translate(-1513.8995,3747.5382)" />
    <use
       id="use3389"
       xlink:href="#path3071"
       x="0"
       y="0"
       width="4096"
       height="4096"
       transform="translate(-1833.9882,1579.7404)" />
    <use
       id="use3391"
       xlink:href="#path3071"
       x="0"
       y="0"
       width="4096"
       height="4096"
       transform="translate(-2711.968,2857.1452)" />
    <use
       id="use3393"
       xlink:href="#path3071"
       x="0"
       y="0"
       width="4096"
       height="4096"
       transform="translate(-2199.5821,2893.77)" />
    <use
       id="use3395"
       xlink:href="#path3071"
       x="0"
       y="0"
       width="4096"
       height="4096"
       transform="translate(-3784.2804,1462.3108)" />
    <use
       id="use3397"
       xlink:href="#path3071"
       x="0"
       y="0"
       width="4096"
       height="4096"
       transform="translate(-2134.9496,2883.4572)" />
    <use
       id="use3399"
       xlink:href="#path3071"
       x="0"
       y="0"
       width="4096"
       height="4096"
       transform="translate(-2508.8524,1530.3736)" />
    <use
       id="use3401"
       xlink:href="#path3071"
       x="0"
       y="0"
       width="4096"
       height="4096"
       transform="translate(-1602.5035,3270.9081)" />
    <use
       id="use3403"
       xlink:href="#path3071"
       x="0"
       y="0"
       width="4096"
       height="4096"
       transform="translate(-1657.6964,1895.9231)" />
    <use
       id="use3405"
       xlink:href="#path3071"
       x="0"
       y="0"
       width="4096"
       height="4096"
       transform="translate(-2783.3392,2002.8572)" />
    <use
       id="use3407"
       xlink:href="#path3071"
       x="0"
       y="0"
       width="4096"
       height="4096"
       transform="translate(-1053.8155,1845.5312)" />
    <use
       id="use3409"
       xlink:href="#path3071"
       x="0"
       y="0"
       width="4096"
       height="4096"
       transform="translate(-3065.5718,2597.2836)" />
    <use
       id="use3411"
       xlink:href="#path3071"
       x="0"
       y="0"
       width="4096"
       height="4096"
       transform="translate(-2645.619,2628.2906)" />
    <use
       id="use3413"
       xlink:href="#path3071"
       x="0"
       y="0"
       width="4096"
       height="4096"
       transform="translate(-4570.7169,2492.8488)" />
    <use
       id="use3415"
       xlink:href="#path3071"
       x="0"
       y="0"
       width="4096"
       height="4096"
       transform="translate(-2590.8563,2836.8181)" />
    <use
       id="use3417"
       xlink:href="#path3071"
       x="0"
       y="0"
       width="4096"
       height="4096"
       transform="translate(-1972.0451,1193.0056)" />
    <use
       id="use3419"
       xlink:href="#path3071"
       x="0"
       y="0"
       width="4096"
       height="4096"
       transform="translate(-3369.3406,970.38103)" />
    <use
       id="use3421"
       xlink:href="#path3071"
       x="0"
       y="0"
       width="4096"
       height="4096"
       transform="translate(-1060.7358,4165.4332)" />
    <use
       id="use3423"
       xlink:href="#path3071"
       x="0"
       y="0"
       width="4096"
       height="4096"
       transform="translate(-1481.221,1177.2182)" />
    <use
       id="use3425"
       xlink:href="#path3071"
       x="0"
       y="0"
       width="4096"
       height="4096"
       transform="translate(-2239.5754,1309.6813)" />
    <use
       id="use3427"
       xlink:href="#path3071"
       x="0"
       y="0"
       width="4096"
       height="4096"
       transform="translate(-1044.2767,3618.9184)" />
    <use
       id="use3429"
       xlink:href="#path3071"
       x="0"
       y="0"
       width="4096"
       height="4096"
       transform="translate(-1264.4233,664.50318)" />
    <use
       id="use3431"
       xlink:href="#path3071"
       x="0"
       y="0"
       width="4096"
       height="4096"
       transform="translate(-2281.2984,1375.0412)" />
    <use
       id="use3433"
       xlink:href="#path3071"
       x="0"
       y="0"
       width="4096"
       height="4096"
       transform="translate(-2567.7963,2220.0948)" />
    <use
       id="use3435"
       xlink:href="#path3071"
       x="0"
       y="0"
       width="4096"
       height="4096"
       transform="translate(-2382.401,2331.2906)" />
    <use
       id="use3437"
       xlink:href="#path3071"
       x="0"
       y="0"
       width="4096"
       height="4096"
       transform="translate(-2829.8898,2306.0552)" />
    <use
       id="use3439"
       xlink:href="#path3071"
       x="0"
       y="0"
       width="4096"
       height="4096"
       transform="translate(-2537.5179,2777.1331)" />
    <use
       id="use3441"
       xlink:href="#path3071"
       x="0"
       y="0"
       width="4096"
       height="4096"
       transform="translate(-2526.0339,2748.947)" />
    <path
       sodipodi:type="spiral"
       style="fill:#00ff00;stroke:#000000;stroke-width:1px;stroke-linecap:butt;stroke-linejoin:miter;stroke-opacity:1"
       id="path8010"
       sodipodi:cx="3776.8005"
       sodipodi:cy="3717.0132"
       sodipodi:expansion="1"
       sodipodi:revolution="3"
       sodipodi:radius="885.9884"
       sodipodi:argument="-17.975386"
       sodipodi:t0="0"
       d="m 3776.8005,3717.0132 c 28.5027,34.0722 -31.8664,55.231 -56.6302,47.3733 -67.1084,-21.294 -70.309,-109.964 -38.1164,-160.6338 57.5851,-90.6365 186.1523,-90.4117 264.6374,-28.8595 115.1801,90.3304 111.2158,263.4124 19.6025,368.641 -122.1061,140.2533 -341.0578,132.3251 -472.6446,10.3456 -165.5885,-153.4988 -153.5935,-418.8882 -1.0886,-576.6482 184.7039,-191.0685 496.823,-174.9544 680.6518,8.1683 216.6358,215.8038 196.3732,574.823 -17.4253,784.6554 -246.8389,242.2598 -652.8664,217.8309 -888.659,-26.6822 -267.9225,-277.8314 -239.3155,-730.9403 35.9392,-992.6626 311.4509,-296.1388 806.52,-263.4972 1096.6662,45.1962 322.0773,342.6657 285.2881,884.404 -54.4531,1200.6697"
       transform="translate(0,-3043.6378)" />
    <path
       sodipodi:type="spiral"
       style="fill:none;stroke:#000000;stroke-width:1px;stroke-linecap:butt;stroke-linejoin:miter;stroke-opacity:1"
       id="path8300"
       sodipodi:cx="221.78003"
       sodipodi:cy="704.61365"
       sodipodi:expansion="1"
       sodipodi:revolution="3"
       sodipodi:radius="525.42902"
       sodipodi:argument="-17.876518"
       sodipodi:t0="0"
       d="m 221.78003,704.61365 c 14.82627,21.77607 -22.03895,30.72906 -36.19326,24.64223 -38.35731,-16.49492 -35.05566,-69.01058 -13.09121,-97.02876 39.28924,-50.11794 115.14962,-42.45933 157.86426,-1.54018 62.68545,60.0505 50.21422,161.96219 -10.01085,218.69976 C 240.07843,925.00896 111.32889,907.51335 40.813716,827.82482 -47.922434,727.54495 -25.308471,571.6284 73.926617,487.45407 194.11361,385.50768 377.36641,413.28793 475.13287,532.118 590.34725,672.15512 557.37341,882.843 418.91791,994.15975 259.06556,1122.6793 20.879791,1084.495 -103.95933,926.39377 -245.80948,746.7491 -202.40348,481.02293 -24.642324,342.68102 174.77883,187.48231 468.07552,236.11769 619.90592,433.54906 788.46644,652.7353 734.59614,973.62465 517.48685,1138.9328"
       transform="translate(0,-3043.6378)" />
    <path
       sodipodi:type="spiral"
       style="fill:none;stroke:#000000;stroke-width:1px;stroke-linecap:butt;stroke-linejoin:miter;stroke-opacity:1"
       id="path8302"
       sodipodi:cx="258.74338"
       sodipodi:cy="815.50366"
       sodipodi:expansion="1"
       sodipodi:revolution="3"
       sodipodi:radius="13.068514"
       sodipodi:argument="-19.634954"
       sodipodi:t0="0"
       d="m 258.74338,815.50366 c 0.46332,-0.46332 0.85313,0.39596 0.77007,0.77007 -0.2251,1.01381 -1.52367,1.17679 -2.31021,0.77007 -1.40695,-0.72752 -1.57177,-2.61674 -0.77007,-3.85035 1.17652,-1.81036 3.72465,-1.97845 5.39048,-0.77007 2.2203,1.61059 2.39014,4.83783 0.77008,6.93063 -2.03869,2.63358 -5.95351,2.80439 -8.47077,0.77007 -3.04874,-2.46383 -3.22014,-7.0706 -0.77007,-10.0109 2.88732,-3.46505 8.18857,-3.63684 11.55104,-0.77008 3.8821,3.30979 4.05415,9.30714 0.77008,13.09119 -3.73158,4.29967 -10.42612,4.4719 -14.63133,0.77007 -4.7176,-4.15289 -4.88997,-11.54539 -0.77007,-16.17146 4.57386,-5.13581 12.6649,-5.30828 17.7116,-0.77008"
       transform="translate(0,-3043.6378)" />
    <path
       sodipodi:type="spiral"
       style="fill:none;stroke:#000000;stroke-width:1px;stroke-linecap:butt;stroke-linejoin:miter;stroke-opacity:1"
       id="path8304"
       sodipodi:cx="-406.59674"
       sodipodi:cy="399.66611"
       sodipodi:expansion="1"
       sodipodi:revolution="3"
       sodipodi:radius="697.05548"
       sodipodi:argument="-17.951429"
       sodipodi:t0="0"
       d="m -406.59674,399.66611 c 21.77605,27.33594 -26.10477,42.84027 -45.43413,36.19323 -52.38139,-18.01307 -53.2277,-87.81491 -26.95234,-127.0615 47.00046,-70.20295 148.11807,-67.60319 208.68887,-17.71144 88.89009,73.21815 82.51017,209.27739 8.47054,290.31624 -98.68318,108.01204 -270.74562,97.64993 -371.94361,-0.77036 C -761.11475,456.78039 -746.6788,248.26998 -623.75615,127.06131 -474.88035,-19.738641 -229.69331,-1.1822553 -88.557807,146.31346 77.765502,320.13206 55.062354,602.12915 -117.05086,763.13917 -315.76238,949.03162 -634.65433,922.16557 -815.50394,725.40522 -1020.9968,501.8336 -989.9573,145.98946 -768.52909,-54.675226 -520.1201,-279.79068 -127.28316,-244.57057 93.178726,1.5405245 337.93321,274.77049 298.52731,704.63006 27.722077,944.87571"
       transform="translate(0,-3043.6378)" />
    <path
       sodipodi:type="spiral"
       style="fill:none;stroke:#000000;stroke-width:1px;stroke-linecap:butt;stroke-linejoin:miter;stroke-opacity:1"
       id="path8306"
       sodipodi:cx="-231.02087"
       sodipodi:cy="1305.2679"
       sodipodi:expansion="1"
       sodipodi:revolution="3"
       sodipodi:radius="785.47095"
       sodipodi:argument="-18.206055"
       sodipodi:t0="0"
       d="m -231.02087,1305.2679 c 31.5058,23.6294 -16.30806,54.1271 -39.27356,52.3648 -62.23508,-4.7759 -82.96999,-80.6553 -65.45589,-130.9119 31.3286,-89.8972 142.3362,-115.7625 222.55011,-78.547 117.7171297,54.6152 149.377733,204.7999 91.638236,314.1884 -76.957669,145.7976 -267.534476,183.3344 -405.826666,104.7294 -174.02661,-98.9164 -217.466,-330.3964 -117.82058,-497.465 C -424.52528,867.28418 -151.8796,817.92817 43.894003,938.71487 274.60642,1081.0578 329.88822,1395.0222 187.89693,1619.4564 23.962356,1878.5745 -331.41777,1939.7886 -584.48286,1776.5505 -872.0315,1591.0689 -939.18262,1194.2076 -754.66812,912.53241 -547.67074,596.53546 -109.28175,523.44363 200.98822,729.25597 548.41738,959.71723 626.47094,1434.7301 397.35582,1776.5506"
       transform="translate(0,-3043.6378)" />
    <path
       sodipodi:type="spiral"
       style="fill:#ff0000;stroke:#000000;stroke-width:1px;stroke-linecap:butt;stroke-linejoin:miter;stroke-opacity:1"
       id="path8308"
       sodipodi:cx="-9.2408352"
       sodipodi:cy="2090.7388"
       sodipodi:expansion="1"
       sodipodi:revolution="3"
       sodipodi:radius="776.45013"
       sodipodi:argument="-17.946066"
       sodipodi:t0="0"
       d="m -9.2408352,2090.7388 c 24.0926852,30.5791 -29.3336248,47.5631 -50.8245858,40.0436 -58.239179,-20.3774 -58.764849,-98.1336 -29.262669,-141.6928 52.772475,-77.9171 165.390235,-74.4172 232.56101,-18.4817 98.57582,82.0876 90.65647,233.6037 7.70075,323.4292 -110.566915,119.7233 -302.16261,107.1532 -414.29743,-3.0802 -141.11024,-138.7175 -123.78456,-370.8876 13.86116,-505.1656 166.70741,-162.6287 439.70647,-140.4942 596.03387,24.6421 184.22642,194.6074 157.253,508.5838 -35.42309,686.9021 -222.452168,205.8754 -577.50031,174.0446 -777.77029,-46.2041 -227.55948,-250.2605 -190.85918,-646.4442 56.985,-868.6385 278.04372,-249.2684 715.40809,-207.6904 959.50672,67.766 273.33286,308.4461 227.18797,782.0579 -78.54692,1050.3749"
       transform="translate(0,-3043.6378)" />
    <path
       sodipodi:type="spiral"
       style="fill:#ff0000;stroke:#000000;stroke-width:1px;stroke-linecap:butt;stroke-linejoin:miter;stroke-opacity:1"
       id="path8310"
       sodipodi:cx="4084.449"
       sodipodi:cy="2081.498"
       sodipodi:expansion="1"
       sodipodi:revolution="3"
       sodipodi:radius="789.42908"
       sodipodi:argument="-18.1803"
       sodipodi:t0="0"
       d="m 4084.449,2081.498 c 31.0425,24.556 -17.7857,53.9598 -40.8137,51.5947 -62.4043,-6.4091 -81.2729,-83.1822 -62.3757,-133.222 33.8028,-89.5094 146.0022,-112.6234 225.6304,-73.1567 116.8575,57.919 144.7801,209.6299 83.9377,318.0387 -81.0934,144.4919 -273.5385,177.2729 -410.4471,94.7187 -172.2854,-103.886 -209.938,-337.5796 -105.4997,-502.8553 126.4889,-200.1712 401.695,-242.7029 595.2637,-116.2808 228.1141,148.9841 275.53,465.8567 127.0618,687.6721 -171.4125,256.0946 -530.0493,308.3988 -780.0804,137.8427 -284.1012,-193.7967 -341.2968,-594.2636 -148.6238,-872.4887 216.1501,-312.1265 658.4938,-374.216 964.8971,-159.4048 343.0994,240.5379 409.226,719.8063 170.1858,1057.3054"
       transform="translate(0,-3043.6378)" />
    <path
       sodipodi:type="spiral"
       style="fill:#d40000;stroke:#000000;stroke-width:1px;stroke-linecap:butt;stroke-linejoin:miter;stroke-opacity:1"
       id="path8312"
       sodipodi:cx="951.80597"
       sodipodi:cy="492.07443"
       sodipodi:expansion="1"
       sodipodi:revolution="3"
       sodipodi:radius="460.3754"
       sodipodi:argument="-17.950365"
       sodipodi:t0="0"
       d="m 951.80597,492.07443 c 14.36293,18.06952 -17.27119,28.27581 -30.03273,23.87214 -34.58299,-11.93368 -35.09288,-58.03538 -17.71154,-83.9376 31.09112,-46.33299 97.8731,-44.54488 137.8425,-11.55095 58.6566,48.41992 54.3473,138.27671 5.3903,191.74733 -65.2519,71.26794 -178.88445,64.30327 -245.65218,-0.77023 -84.02038,-81.88836 -74.33949,-219.59036 6.93083,-299.55707 98.42925,-96.8504 260.35165,-84.42235 353.46195,13.09143 109.7272,114.91661 94.5345,301.14759 -19.252,407.36679 C 1011.412,854.97055 800.81647,837.00253 681.5114,706.92366 545.94939,559.11979 566.69975,324.12187 713.0846,191.74713 877.30628,43.242678 1136.7334,66.780176 1282.166,229.48093 c 161.4577,180.62867 135.1297,464.50472 -43.8944,622.98626"
       transform="translate(0,-3043.6378)" />
    <use
       id="use8314"
       xlink:href="#path8312"
       x="0"
       y="0"
       width="4096"
       height="4096"
       transform="translate(1300.2954,422.96155)" />
    <use
       id="use8316"
       xlink:href="#path8312"
       x="0"
       y="0"
       width="4096"
       height="4096"
       transform="translate(1377.9509,1880.3389)" />
    <use
       id="use8318"
       xlink:href="#path8312"
       x="0"
       y="0"
       width="4096"
       height="4096"
       transform="translate(545.23755,2664.8776)" />
    <use
       id="use8320"
       xlink:href="#path8312"
       x="0"
       y="0"
       width="4096"
       height="4096"
       transform="translate(1787.1142,2936.6778)" />
    <use
       id="use8322"
       xlink:href="#path8312"
       x="0"
       y="0"
       width="4096"
       height="4096"
       transform="translate(259.5079,981.90137)" />
    <use
       id="use8324"
       xlink:href="#path8312"
       x="0"
       y="0"
       width="4096"
       height="4096"
       transform="translate(527.39143,1254.2506)" />
    <use
       id="use8326"
       xlink:href="#path8312"
       x="0"
       y="0"
       width="4096"
       height="4096"
       transform="translate(377.09553,1234.878)" />
    <use
       id="use8328"
       xlink:href="#path8312"
       x="0"
       y="0"
       width="4096"
       height="4096"
       transform="translate(2678.3718,215.82989)" />
    <use
       id="use8330"
       xlink:href="#path8312"
       x="0"
       y="0"
       width="4096"
       height="4096"
       transform="translate(-80.269606,3076.3384)" />
    <use
       id="use8362"
       xlink:href="#path8312"
       x="0"
       y="0"
       width="4096"
       height="4096"
       transform="translate(2284.1965,3779.321)" />
    <path
       transform="translate(2235.0948,-3347.6187)"
       sodipodi:type="spiral"
       style="fill:#d40000;stroke:#000000;stroke-width:1px;stroke-linecap:butt;stroke-linejoin:miter;stroke-opacity:1"
       id="path8312-2"
       sodipodi:cx="951.80597"
       sodipodi:cy="492.07443"
       sodipodi:expansion="1"
       sodipodi:revolution="3"
       sodipodi:radius="460.3754"
       sodipodi:argument="-17.950365"
       sodipodi:t0="0"
       d="m 951.80597,492.07443 c 14.36293,18.06952 -17.27119,28.27581 -30.03273,23.87214 -34.58299,-11.93368 -35.09288,-58.03538 -17.71154,-83.9376 31.09112,-46.33299 97.8731,-44.54488 137.8425,-11.55095 58.6566,48.41992 54.3473,138.27671 5.3903,191.74733 -65.2519,71.26794 -178.88445,64.30327 -245.65218,-0.77023 -84.02038,-81.88836 -74.33949,-219.59036 6.93083,-299.55707 98.42925,-96.8504 260.35165,-84.42235 353.46195,13.09143 109.7272,114.91661 94.5345,301.14759 -19.252,407.36679 C 1011.412,854.97055 800.81647,837.00253 681.5114,706.92366 545.94939,559.11979 566.69975,324.12187 713.0846,191.74713 877.30628,43.242678 1136.7334,66.780176 1282.166,229.48093 c 161.4577,180.62867 135.1297,464.50472 -43.8944,622.98626" />
  </g>
</svg>
